# xmcd CD database file
#
# Track frame offsets:
#	150
#	20718
#	41368
#	60376
#	78813
#	99423
#	116984
#	134790
#	158126
#	182507
#
# Disc length: 3570 seconds
#
# Revision: 0
# Processed by: cddbd v1.5.1PL0 Copyright (c) Steve Scherf et al.
# Submitted via: CDex 1.51
#
DISCID=7d0df00a
DTITLE=Vanessa Liftig - When Will Is Silent
DYEAR=2005
DGENRE=Jazz
TTITLE0=All the Things You Miss
TTITLE1=Slow Seconds
TTITLE2=Reefs of Rock
TTITLE3=Simplified
TTITLE4=A Stone to Take Home
TTITLE5=My Darling You
TTITLE6=Play Along
TTITLE7=When Will Is Silent
TTITLE8=December Star
TTITLE9=Where the In and Out Will Go
EXTD=YEAR: 2005
EXTT0=
EXTT1=
EXTT2=
EXTT3=
EXTT4=
EXTT5=
EXTT6=
EXTT7=
EXTT8=
EXTT9=
PLAYORDER=
